STARTFONT 2.1
FONT -Adobe-ITC Avant Garde Gothic-Demi-O-Normal--11-80-100-100-P-61-ISO8859-15
SIZE 8 100 100
FONTBOUNDINGBOX 13 13 -1 -2

STARTPROPERTIES 30
FOUNDRY "Adobe"
FAMILY_NAME "ITC Avant Garde Gothic"
WEIGHT_NAME "Demi"
SLANT "O"
SETWIDTH_NAME "Normal"
ADD_STYLE_NAME ""
PIXEL_SIZE 11
POINT_SIZE 80
RESOLUTION_X 100
RESOLUTION_Y 100
SPACING "P"
AVERAGE_WIDTH 61
CHARSET_REGISTRY "ISO8859"
CHARSET_ENCODING "15"
CAP_HEIGHT 8
X_HEIGHT 6
FACE_NAME "ITC Avant Garde Gothic Demi Oblique"
COPYRIGHT "Copyright (c) 1984, 1987 Adobe Systems Incorporated. All Rights Reserved. Copyright (c) 1988, 1991 Digital Equipment Corporation. All Rights Reserved."
NOTICE "ITC Avant Garde Gothic is a registered trademark of International Typeface Corporation."
_DEC_DEVICE_FONTNAMES "PS=AvantGarde-DemiOblique"
_DEC_PRODUCTINFO "DECwindows Fonts V2.2, 07-Nov-1991"
RELATIVE_SETWIDTH 50
RELATIVE_WEIGHT 60
CHARSET_COLLECTIONS "ASCII ISO8859-1 ADOBE-STANDARD"
FULL_NAME "ITC Avant Garde Gothic Demi Oblique"
WEIGHT 10
QUAD_WIDTH 7
DEFAULT_CHAR 32
FONT_DESCENT 2
FONT_ASCENT 10
ENDPROPERTIES

CHARS 191

STARTCHAR space
ENCODING 32
SWIDTH 280 0
DWIDTH 3 0
BBX 1 1 0 0
BITMAP
00
ENDCHAR

STARTCHAR exclam
ENCODING 33
SWIDTH 280 0
DWIDTH 4 0
BBX 3 8 1 0
BITMAP
60
60
60
C0
C0
00
C0
C0
ENDCHAR

STARTCHAR quotedbl
ENCODING 34
SWIDTH 360 0
DWIDTH 4 0
BBX 3 3 1 5
BITMAP
A0
A0
A0
ENDCHAR

STARTCHAR numbersign
ENCODING 35
SWIDTH 600 0
DWIDTH 6 0
BBX 7 8 0 0
BITMAP
14
14
7E
28
28
FC
50
50
ENDCHAR

STARTCHAR dollar
ENCODING 36
SWIDTH 560 0
DWIDTH 6 0
BBX 6 10 0 -1
BITMAP
08
18
3C
6C
70
38
D8
F8
70
40
ENDCHAR

STARTCHAR percent
ENCODING 37
SWIDTH 860 0
DWIDTH 12 0
BBX 10 8 1 0
BITMAP
3200
DA00
DC00
6400
0980
0EC0
16C0
1300
ENDCHAR

STARTCHAR ampersand
ENCODING 38
SWIDTH 680 0
DWIDTH 9 0
BBX 8 8 1 0
BITMAP
1C
36
36
78
DF
CE
FF
73
ENDCHAR

STARTCHAR quoteright
ENCODING 39
SWIDTH 280 0
DWIDTH 3 0
BBX 2 4 1 4
BITMAP
C0
C0
40
80
ENDCHAR

STARTCHAR parenleft
ENCODING 40
SWIDTH 380 0
DWIDTH 5 0
BBX 4 9 1 -1
BITMAP
30
60
40
C0
C0
C0
C0
C0
60
ENDCHAR

STARTCHAR parenright
ENCODING 41
SWIDTH 380 0
DWIDTH 5 0
BBX 4 9 0 -1
BITMAP
60
30
30
30
30
30
60
60
C0
ENDCHAR

STARTCHAR asterisk
ENCODING 42
SWIDTH 440 0
DWIDTH 7 0
BBX 6 5 1 3
BITMAP
48
30
FC
30
48
ENDCHAR

STARTCHAR plus
ENCODING 43
SWIDTH 600 0
DWIDTH 6 0
BBX 6 5 0 1
BITMAP
10
10
FC
20
20
ENDCHAR

STARTCHAR comma
ENCODING 44
SWIDTH 280 0
DWIDTH 3 0
BBX 2 4 0 -2
BITMAP
C0
C0
40
80
ENDCHAR

STARTCHAR minus
ENCODING 45
SWIDTH 600 0
DWIDTH 6 0
BBX 5 1 0 3
BITMAP
F8
ENDCHAR

STARTCHAR period
ENCODING 46
SWIDTH 280 0
DWIDTH 3 0
BBX 2 2 0 0
BITMAP
C0
C0
ENDCHAR

STARTCHAR slash
ENCODING 47
SWIDTH 460 0
DWIDTH 4 0
BBX 4 9 0 -1
BITMAP
10
10
20
20
40
40
40
80
80
ENDCHAR

STARTCHAR zero
ENCODING 48
SWIDTH 560 0
DWIDTH 6 0
BBX 6 8 0 0
BITMAP
38
7C
6C
6C
D8
D8
F8
70
ENDCHAR

STARTCHAR one
ENCODING 49
SWIDTH 560 0
DWIDTH 6 0
BBX 3 8 2 0
BITMAP
E0
E0
60
60
C0
C0
C0
C0
ENDCHAR

STARTCHAR two
ENCODING 50
SWIDTH 560 0
DWIDTH 6 0
BBX 6 8 0 0
BITMAP
38
7C
6C
18
30
60
F8
F8
ENDCHAR

STARTCHAR three
ENCODING 51
SWIDTH 560 0
DWIDTH 6 0
BBX 6 8 0 0
BITMAP
38
7C
0C
38
18
D8
F8
70
ENDCHAR

STARTCHAR four
ENCODING 52
SWIDTH 560 0
DWIDTH 6 0
BBX 6 8 0 0
BITMAP
0C
1C
3C
6C
D8
FC
18
18
ENDCHAR

STARTCHAR five
ENCODING 53
SWIDTH 560 0
DWIDTH 6 0
BBX 6 8 0 0
BITMAP
3C
3C
60
78
18
D8
F8
70
ENDCHAR

STARTCHAR six
ENCODING 54
SWIDTH 560 0
DWIDTH 6 0
BBX 6 8 0 0
BITMAP
1C
38
70
F8
D8
D8
F8
70
ENDCHAR

STARTCHAR seven
ENCODING 55
SWIDTH 560 0
DWIDTH 6 0
BBX 5 8 1 0
BITMAP
F8
F8
30
30
60
60
C0
C0
ENDCHAR

STARTCHAR eight
ENCODING 56
SWIDTH 560 0
DWIDTH 6 0
BBX 6 8 0 0
BITMAP
38
7C
6C
78
D8
D8
F8
70
ENDCHAR

STARTCHAR nine
ENCODING 57
SWIDTH 560 0
DWIDTH 6 0
BBX 6 8 0 0
BITMAP
38
7C
6C
6C
7C
38
70
E0
ENDCHAR

STARTCHAR colon
ENCODING 58
SWIDTH 280 0
DWIDTH 3 0
BBX 3 6 0 0
BITMAP
60
60
00
00
C0
C0
ENDCHAR

STARTCHAR semicolon
ENCODING 59
SWIDTH 280 0
DWIDTH 3 0
BBX 3 8 0 -2
BITMAP
60
60
00
00
C0
C0
40
80
ENDCHAR

STARTCHAR less
ENCODING 60
SWIDTH 600 0
DWIDTH 6 0
BBX 6 6 1 1
BITMAP
04
1C
70
C0
70
10
ENDCHAR

STARTCHAR equal
ENCODING 61
SWIDTH 600 0
DWIDTH 6 0
BBX 6 3 0 2
BITMAP
7C
00
F8
ENDCHAR

STARTCHAR greater
ENCODING 62
SWIDTH 600 0
DWIDTH 6 0
BBX 6 6 0 1
BITMAP
20
38
0C
38
E0
80
ENDCHAR

STARTCHAR question
ENCODING 63
SWIDTH 560 0
DWIDTH 6 0
BBX 5 8 1 0
BITMAP
70
D8
18
30
60
00
C0
C0
ENDCHAR

STARTCHAR at
ENCODING 64
SWIDTH 740 0
DWIDTH 8 0
BBX 8 8 0 0
BITMAP
3E
41
9D
AD
AD
B6
40
3C
ENDCHAR

STARTCHAR A
ENCODING 65
SWIDTH 740 0
DWIDTH 6 0
BBX 6 8 0 0
BITMAP
18
18
38
38
6C
7C
CC
CC
ENDCHAR

STARTCHAR B
ENCODING 66
SWIDTH 580 0
DWIDTH 7 0
BBX 6 8 1 0
BITMAP
78
7C
6C
78
CC
CC
F8
F0
ENDCHAR

STARTCHAR C
ENCODING 67
SWIDTH 780 0
DWIDTH 8 0
BBX 7 8 1 0
BITMAP
1C
7E
66
C0
C0
CC
FC
70
ENDCHAR

STARTCHAR D
ENCODING 68
SWIDTH 700 0
DWIDTH 8 0
BBX 7 8 1 0
BITMAP
7C
7E
66
66
C6
CC
FC
F0
ENDCHAR

STARTCHAR E
ENCODING 69
SWIDTH 520 0
DWIDTH 6 0
BBX 5 8 1 0
BITMAP
78
78
60
70
F0
C0
F0
F0
ENDCHAR

STARTCHAR F
ENCODING 70
SWIDTH 480 0
DWIDTH 5 0
BBX 5 8 1 0
BITMAP
78
78
60
70
F0
C0
C0
C0
ENDCHAR

STARTCHAR G
ENCODING 71
SWIDTH 840 0
DWIDTH 8 0
BBX 7 8 1 0
BITMAP
1C
7E
66
C0
DC
CC
FC
70
ENDCHAR

STARTCHAR H
ENCODING 72
SWIDTH 680 0
DWIDTH 7 0
BBX 6 8 1 0
BITMAP
6C
6C
6C
7C
F8
D8
D8
D8
ENDCHAR

STARTCHAR I
ENCODING 73
SWIDTH 280 0
DWIDTH 4 0
BBX 3 8 1 0
BITMAP
60
60
60
60
C0
C0
C0
C0
ENDCHAR

STARTCHAR J
ENCODING 74
SWIDTH 480 0
DWIDTH 6 0
BBX 6 8 0 0
BITMAP
0C
0C
0C
0C
18
D8
F8
70
ENDCHAR

STARTCHAR K
ENCODING 75
SWIDTH 620 0
DWIDTH 7 0
BBX 7 8 1 0
BITMAP
66
6C
78
70
D8
D8
CC
CC
ENDCHAR

STARTCHAR L
ENCODING 76
SWIDTH 440 0
DWIDTH 5 0
BBX 4 8 1 0
BITMAP
60
60
60
60
C0
C0
F0
F0
ENDCHAR

STARTCHAR M
ENCODING 77
SWIDTH 900 0
DWIDTH 9 0
BBX 8 8 1 0
BITMAP
63
63
67
7E
FE
D6
D6
D6
ENDCHAR

STARTCHAR N
ENCODING 78
SWIDTH 740 0
DWIDTH 8 0
BBX 7 8 1 0
BITMAP
66
66
76
76
DC
DC
CC
CC
ENDCHAR

STARTCHAR O
ENCODING 79
SWIDTH 840 0
DWIDTH 8 0
BBX 7 8 1 0
BITMAP
1C
7E
66
C6
C6
CC
FC
70
ENDCHAR

STARTCHAR P
ENCODING 80
SWIDTH 560 0
DWIDTH 7 0
BBX 6 8 1 0
BITMAP
78
7C
6C
6C
F8
F0
C0
C0
ENDCHAR

STARTCHAR Q
ENCODING 81
SWIDTH 840 0
DWIDTH 8 0
BBX 7 8 1 0
BITMAP
1C
7E
66
C6
DE
EC
FC
76
ENDCHAR

STARTCHAR R
ENCODING 82
SWIDTH 580 0
DWIDTH 7 0
BBX 6 8 1 0
BITMAP
78
7C
6C
78
F0
D8
D8
D8
ENDCHAR

STARTCHAR S
ENCODING 83
SWIDTH 520 0
DWIDTH 4 0
BBX 5 8 0 0
BITMAP
38
78
60
60
30
30
F0
E0
ENDCHAR

STARTCHAR T
ENCODING 84
SWIDTH 420 0
DWIDTH 4 0
BBX 4 8 1 0
BITMAP
F0
F0
60
60
C0
C0
C0
C0
ENDCHAR

STARTCHAR U
ENCODING 85
SWIDTH 640 0
DWIDTH 7 0
BBX 6 8 1 0
BITMAP
6C
6C
6C
6C
D8
D8
F8
70
ENDCHAR

STARTCHAR V
ENCODING 86
SWIDTH 700 0
DWIDTH 6 0
BBX 6 8 1 0
BITMAP
CC
CC
D8
D8
70
70
60
60
ENDCHAR

STARTCHAR W
ENCODING 87
SWIDTH 900 0
DWIDTH 10 0
BBX 10 8 1 0
BITMAP
CCC0
CCC0
DD80
DD80
7700
7700
6600
6600
ENDCHAR

STARTCHAR X
ENCODING 88
SWIDTH 680 0
DWIDTH 7 0
BBX 6 8 1 0
BITMAP
6C
6C
38
38
70
70
D8
D8
ENDCHAR

STARTCHAR Y
ENCODING 89
SWIDTH 620 0
DWIDTH 6 0
BBX 6 8 1 0
BITMAP
CC
CC
D8
58
70
60
60
60
ENDCHAR

STARTCHAR Z
ENCODING 90
SWIDTH 500 0
DWIDTH 6 0
BBX 5 8 1 0
BITMAP
78
78
18
30
60
C0
F0
F0
ENDCHAR

STARTCHAR bracketleft
ENCODING 91
SWIDTH 320 0
DWIDTH 5 0
BBX 4 9 1 -1
BITMAP
30
60
60
60
60
C0
C0
C0
60
ENDCHAR

STARTCHAR backslash
ENCODING 92
SWIDTH 640 0
DWIDTH 6 0
BBX 4 8 1 0
BITMAP
80
80
40
40
20
20
10
10
ENDCHAR

STARTCHAR bracketright
ENCODING 93
SWIDTH 320 0
DWIDTH 5 0
BBX 4 9 0 -1
BITMAP
60
30
30
30
60
60
60
60
C0
ENDCHAR

STARTCHAR asciicircum
ENCODING 94
SWIDTH 600 0
DWIDTH 6 0
BBX 5 5 1 3
BITMAP
20
20
70
50
D8
ENDCHAR

STARTCHAR underscore
ENCODING 95
SWIDTH 500 0
DWIDTH 5 0
BBX 5 1 0 -2
BITMAP
F8
ENDCHAR

STARTCHAR quoteleft
ENCODING 96
SWIDTH 280 0
DWIDTH 3 0
BBX 2 4 1 4
BITMAP
40
80
C0
C0
ENDCHAR

STARTCHAR a
ENCODING 97
SWIDTH 660 0
DWIDTH 7 0
BBX 7 6 0 0
BITMAP
3A
6E
C6
CC
DC
6C
ENDCHAR

STARTCHAR b
ENCODING 98
SWIDTH 660 0
DWIDTH 7 0
BBX 7 8 0 0
BITMAP
60
60
6C
76
66
C6
CC
F8
ENDCHAR

STARTCHAR c
ENCODING 99
SWIDTH 640 0
DWIDTH 6 0
BBX 6 6 0 0
BITMAP
38
6C
C0
C0
C8
70
ENDCHAR

STARTCHAR d
ENCODING 100
SWIDTH 660 0
DWIDTH 7 0
BBX 7 8 0 0
BITMAP
06
06
3E
66
C6
CC
DC
6C
ENDCHAR

STARTCHAR e
ENCODING 101
SWIDTH 640 0
DWIDTH 6 0
BBX 6 6 0 0
BITMAP
38
6C
FC
C0
C8
70
ENDCHAR

STARTCHAR f
ENCODING 102
SWIDTH 280 0
DWIDTH 3 0
BBX 4 8 0 0
BITMAP
30
60
F0
60
60
C0
C0
C0
ENDCHAR

STARTCHAR g
ENCODING 103
SWIDTH 660 0
DWIDTH 7 0
BBX 7 8 0 -2
BITMAP
3A
6E
C6
CC
DC
6C
18
70
ENDCHAR

STARTCHAR h
ENCODING 104
SWIDTH 600 0
DWIDTH 6 0
BBX 6 8 0 0
BITMAP
60
60
6C
7C
6C
D8
D8
D8
ENDCHAR

STARTCHAR i
ENCODING 105
SWIDTH 240 0
DWIDTH 3 0
BBX 3 8 0 0
BITMAP
60
00
60
60
60
C0
C0
C0
ENDCHAR

STARTCHAR j
ENCODING 106
SWIDTH 260 0
DWIDTH 3 0
BBX 4 10 -1 -2
BITMAP
30
00
30
30
30
60
60
60
60
C0
ENDCHAR

STARTCHAR k
ENCODING 107
SWIDTH 580 0
DWIDTH 6 0
BBX 6 8 0 0
BITMAP
60
60
6C
78
70
D8
D8
CC
ENDCHAR

STARTCHAR l
ENCODING 108
SWIDTH 240 0
DWIDTH 3 0
BBX 3 8 0 0
BITMAP
60
60
60
60
C0
C0
C0
C0
ENDCHAR

STARTCHAR m
ENCODING 109
SWIDTH 940 0
DWIDTH 9 0
BBX 9 6 0 0
BITMAP
6D80
7F80
6D80
C900
DB00
DB00
ENDCHAR

STARTCHAR n
ENCODING 110
SWIDTH 600 0
DWIDTH 6 0
BBX 6 6 0 0
BITMAP
6C
7C
6C
C8
D8
D8
ENDCHAR

STARTCHAR o
ENCODING 111
SWIDTH 640 0
DWIDTH 7 0
BBX 7 6 0 0
BITMAP
3C
66
C6
C6
CC
78
ENDCHAR

STARTCHAR p
ENCODING 112
SWIDTH 660 0
DWIDTH 7 0
BBX 7 8 0 -2
BITMAP
6C
76
66
C6
CC
F8
C0
C0
ENDCHAR

STARTCHAR q
ENCODING 113
SWIDTH 660 0
DWIDTH 7 0
BBX 7 8 0 -2
BITMAP
3A
6E
C6
CC
DC
6C
18
18
ENDCHAR

STARTCHAR r
ENCODING 114
SWIDTH 320 0
DWIDTH 5 0
BBX 5 6 0 0
BITMAP
68
78
60
C0
C0
C0
ENDCHAR

STARTCHAR s
ENCODING 115
SWIDTH 440 0
DWIDTH 5 0
BBX 5 6 0 0
BITMAP
38
68
60
30
B0
E0
ENDCHAR

STARTCHAR t
ENCODING 116
SWIDTH 300 0
DWIDTH 3 0
BBX 5 8 0 0
BITMAP
30
30
F8
60
60
C0
C0
C0
ENDCHAR

STARTCHAR u
ENCODING 117
SWIDTH 600 0
DWIDTH 6 0
BBX 6 6 0 0
BITMAP
6C
6C
4C
D8
F8
68
ENDCHAR

STARTCHAR v
ENCODING 118
SWIDTH 560 0
DWIDTH 6 0
BBX 5 6 1 0
BITMAP
D8
D8
D0
F0
60
60
ENDCHAR

STARTCHAR w
ENCODING 119
SWIDTH 800 0
DWIDTH 9 0
BBX 8 6 1 0
BITMAP
DB
DB
DA
6E
6C
6C
ENDCHAR

STARTCHAR x
ENCODING 120
SWIDTH 560 0
DWIDTH 7 0
BBX 7 6 0 0
BITMAP
66
6C
38
38
6C
CC
ENDCHAR

STARTCHAR y
ENCODING 121
SWIDTH 580 0
DWIDTH 6 0
BBX 5 8 1 -2
BITMAP
D8
D8
D0
70
60
60
C0
C0
ENDCHAR

STARTCHAR z
ENCODING 122
SWIDTH 460 0
DWIDTH 5 0
BBX 5 6 0 0
BITMAP
78
38
30
60
E0
F0
ENDCHAR

STARTCHAR braceleft
ENCODING 123
SWIDTH 340 0
DWIDTH 6 0
BBX 5 9 1 -1
BITMAP
18
30
30
30
C0
60
60
60
30
ENDCHAR

STARTCHAR bar
ENCODING 124
SWIDTH 600 0
DWIDTH 6 0
BBX 2 8 2 0
BITMAP
40
40
40
40
80
80
80
80
ENDCHAR

STARTCHAR braceright
ENCODING 125
SWIDTH 340 0
DWIDTH 6 0
BBX 5 9 0 -1
BITMAP
60
30
30
30
18
60
60
60
C0
ENDCHAR

STARTCHAR asciitilde
ENCODING 126
SWIDTH 600 0
DWIDTH 7 0
BBX 6 2 1 3
BITMAP
74
B8
ENDCHAR

STARTCHAR space
ENCODING 160
SWIDTH 280 0
DWIDTH 3 0
BBX 1 1 0 0
BITMAP
00
ENDCHAR

STARTCHAR exclamdown
ENCODING 161
SWIDTH 280 0
DWIDTH 3 0
BBX 3 8 0 -2
BITMAP
60
60
00
60
60
C0
C0
C0
ENDCHAR

STARTCHAR cent
ENCODING 162
SWIDTH 560 0
DWIDTH 6 0
BBX 6 7 0 0
BITMAP
08
3C
6C
C0
CC
78
20
ENDCHAR

STARTCHAR sterling
ENCODING 163
SWIDTH 560 0
DWIDTH 6 0
BBX 6 8 0 0
BITMAP
18
3C
6C
60
FC
30
64
F8
ENDCHAR

STARTCHAR EuroSign
ENCODING 164
SWIDTH 534 0
DWIDTH 6 0
BBX 7 8 0 0
BITMAP
1E
30
FC
60
FC
60
70
3C
ENDCHAR

STARTCHAR yen
ENCODING 165
SWIDTH 560 0
DWIDTH 7 0
BBX 7 8 0 0
BITMAP
66
66
6C
EE
38
FC
30
30
ENDCHAR

STARTCHAR Scaron
ENCODING 166
SWIDTH 520 0
DWIDTH 4 0
BBX 5 9 0 0
BITMAP
18
38
78
60
60
30
30
F0
E0
ENDCHAR

STARTCHAR section
ENCODING 167
SWIDTH 560 0
DWIDTH 6 0
BBX 5 9 1 -1
BITMAP
38
68
E0
B0
D8
68
38
B0
E0
ENDCHAR

STARTCHAR scaron
ENCODING 168
SWIDTH 440 0
DWIDTH 5 0
BBX 5 7 0 0
BITMAP
18
38
68
60
30
B0
E0
ENDCHAR

STARTCHAR copyright
ENCODING 169
SWIDTH 740 0
DWIDTH 10 0
BBX 9 8 1 0
BITMAP
1E00
2100
5C80
A080
A480
9900
4200
3C00
ENDCHAR

STARTCHAR ordfeminine
ENCODING 170
SWIDTH 360 0
DWIDTH 5 0
BBX 4 6 1 2
BITMAP
70
90
B0
D0
00
F0
ENDCHAR

STARTCHAR guillemotleft
ENCODING 171
SWIDTH 460 0
DWIDTH 7 0
BBX 6 5 1 1
BITMAP
24
6C
D8
6C
24
ENDCHAR

STARTCHAR logicalnot
ENCODING 172
SWIDTH 600 0
DWIDTH 6 0
BBX 5 3 1 2
BITMAP
F8
08
08
ENDCHAR

STARTCHAR hyphen
ENCODING 173
SWIDTH 420 0
DWIDTH 4 0
BBX 3 1 1 3
BITMAP
E0
ENDCHAR

STARTCHAR registered
ENCODING 174
SWIDTH 740 0
DWIDTH 10 0
BBX 9 8 1 0
BITMAP
1E00
2100
5E80
9280
BC80
A500
4200
3C00
ENDCHAR

STARTCHAR macron
ENCODING 175
SWIDTH 420 0
DWIDTH 5 0
BBX 3 1 2 7
BITMAP
E0
ENDCHAR

STARTCHAR degree
ENCODING 176
SWIDTH 400 0
DWIDTH 4 0
BBX 4 4 1 4
BITMAP
60
90
90
60
ENDCHAR

STARTCHAR plusminus
ENCODING 177
SWIDTH 600 0
DWIDTH 6 0
BBX 5 5 0 1
BITMAP
10
78
20
00
F8
ENDCHAR

STARTCHAR twosuperior
ENCODING 178
SWIDTH 336 0
DWIDTH 3 0
BBX 4 4 0 4
BITMAP
70
30
60
F0
ENDCHAR

STARTCHAR threesuperior
ENCODING 179
SWIDTH 336 0
DWIDTH 3 0
BBX 4 4 0 4
BITMAP
70
20
30
E0
ENDCHAR

STARTCHAR Zcaron
ENCODING 180
SWIDTH 500 0
DWIDTH 6 0
BBX 5 9 1 0
BITMAP
18
78
78
18
30
60
C0
F0
F0
ENDCHAR

STARTCHAR mu
ENCODING 181
SWIDTH 576 0
DWIDTH 6 0
BBX 7 8 -1 -2
BITMAP
36
36
36
6C
7C
6C
C0
C0
ENDCHAR

STARTCHAR paragraph
ENCODING 182
SWIDTH 600 0
DWIDTH 7 0
BBX 6 9 1 -1
BITMAP
7C
F4
F4
F4
74
28
28
28
28
ENDCHAR

STARTCHAR periodcentered
ENCODING 183
SWIDTH 280 0
DWIDTH 3 0
BBX 2 2 1 3
BITMAP
C0
C0
ENDCHAR

STARTCHAR zcaron
ENCODING 184
SWIDTH 460 0
DWIDTH 5 0
BBX 5 7 0 0
BITMAP
18
78
38
30
60
E0
F0
ENDCHAR

STARTCHAR onesuperior
ENCODING 185
SWIDTH 336 0
DWIDTH 3 0
BBX 3 4 1 4
BITMAP
E0
60
C0
C0
ENDCHAR

STARTCHAR ordmasculine
ENCODING 186
SWIDTH 360 0
DWIDTH 5 0
BBX 4 6 1 2
BITMAP
60
90
90
60
00
F0
ENDCHAR

STARTCHAR guillemotright
ENCODING 187
SWIDTH 460 0
DWIDTH 7 0
BBX 6 5 1 1
BITMAP
90
D8
6C
D8
90
ENDCHAR

STARTCHAR Ligature_OE
ENCODING 188
SWIDTH 1060 0
DWIDTH 12 0
BBX 11 8 1 0
BITMAP
1DE0
7FE0
6700
C7C0
C7C0
CE00
FFC0
77C0
ENDCHAR

STARTCHAR Ligature_oe
ENCODING 189
SWIDTH 1080 0
DWIDTH 11 0
BBX 11 6 0 0
BITMAP
3DC0
6760
C7E0
C600
CE40
7B80
ENDCHAR

STARTCHAR Ydiaeresis
ENCODING 190
SWIDTH 620 0
DWIDTH 6 0
BBX 6 11 1 0
BITMAP
28
28
00
CC
CC
D8
58
70
60
60
60
ENDCHAR

STARTCHAR questiondown
ENCODING 191
SWIDTH 560 0
DWIDTH 5 0
BBX 5 8 0 -2
BITMAP
18
18
00
30
60
C0
D8
70
ENDCHAR

STARTCHAR Agrave
ENCODING 192
SWIDTH 740 0
DWIDTH 6 0
BBX 6 11 0 0
BITMAP
30
18
00
18
18
38
38
6C
7C
CC
CC
ENDCHAR

STARTCHAR Aacute
ENCODING 193
SWIDTH 740 0
DWIDTH 6 0
BBX 6 11 0 0
BITMAP
0C
18
00
18
18
38
38
6C
7C
CC
CC
ENDCHAR

STARTCHAR Acircumflex
ENCODING 194
SWIDTH 740 0
DWIDTH 6 0
BBX 6 11 0 0
BITMAP
18
34
00
18
18
38
38
6C
7C
CC
CC
ENDCHAR

STARTCHAR Atilde
ENCODING 195
SWIDTH 740 0
DWIDTH 6 0
BBX 7 11 0 0
BITMAP
1A
24
00
18
18
38
38
6C
7C
CC
CC
ENDCHAR

STARTCHAR Adieresis
ENCODING 196
SWIDTH 740 0
DWIDTH 6 0
BBX 6 11 0 0
BITMAP
14
14
00
18
18
38
38
6C
7C
CC
CC
ENDCHAR

STARTCHAR Aring
ENCODING 197
SWIDTH 740 0
DWIDTH 6 0
BBX 6 11 0 0
BITMAP
18
24
24
18
18
38
38
6C
7C
CC
CC
ENDCHAR

STARTCHAR AE
ENCODING 198
SWIDTH 900 0
DWIDTH 10 0
BBX 11 8 -1 0
BITMAP
01E0
03E0
0780
0DC0
19C0
3F00
73C0
E3C0
ENDCHAR

STARTCHAR Ccedilla
ENCODING 199
SWIDTH 780 0
DWIDTH 8 0
BBX 7 10 1 -2
BITMAP
1C
7E
66
C0
C0
CC
FC
70
20
C0
ENDCHAR

STARTCHAR Egrave
ENCODING 200
SWIDTH 520 0
DWIDTH 6 0
BBX 5 11 1 0
BITMAP
60
30
00
78
78
60
70
F0
C0
F0
F0
ENDCHAR

STARTCHAR Eacute
ENCODING 201
SWIDTH 520 0
DWIDTH 6 0
BBX 5 11 1 0
BITMAP
18
30
00
78
78
60
70
F0
C0
F0
F0
ENDCHAR

STARTCHAR Ecircumflex
ENCODING 202
SWIDTH 520 0
DWIDTH 6 0
BBX 5 11 1 0
BITMAP
30
68
00
78
78
60
70
F0
C0
F0
F0
ENDCHAR

STARTCHAR Edieresis
ENCODING 203
SWIDTH 520 0
DWIDTH 6 0
BBX 5 11 1 0
BITMAP
28
28
00
78
78
60
70
F0
C0
F0
F0
ENDCHAR

STARTCHAR Igrave
ENCODING 204
SWIDTH 280 0
DWIDTH 4 0
BBX 3 11 1 0
BITMAP
C0
60
00
60
60
60
60
C0
C0
C0
C0
ENDCHAR

STARTCHAR Iacute
ENCODING 205
SWIDTH 280 0
DWIDTH 4 0
BBX 4 11 1 0
BITMAP
30
60
00
60
60
60
60
C0
C0
C0
C0
ENDCHAR

STARTCHAR Icircumflex
ENCODING 206
SWIDTH 280 0
DWIDTH 4 0
BBX 4 11 1 0
BITMAP
60
D0
00
60
60
60
60
C0
C0
C0
C0
ENDCHAR

STARTCHAR Idieresis
ENCODING 207
SWIDTH 280 0
DWIDTH 4 0
BBX 4 11 1 0
BITMAP
50
50
00
60
60
60
60
C0
C0
C0
C0
ENDCHAR

STARTCHAR Eth
ENCODING 208
SWIDTH 742 0
DWIDTH 8 0
BBX 8 8 0 0
BITMAP
3E
3F
33
FB
63
66
7E
78
ENDCHAR

STARTCHAR Ntilde
ENCODING 209
SWIDTH 740 0
DWIDTH 8 0
BBX 7 11 1 0
BITMAP
1A
24
00
66
66
76
76
DC
DC
CC
CC
ENDCHAR

STARTCHAR Ograve
ENCODING 210
SWIDTH 840 0
DWIDTH 8 0
BBX 7 11 1 0
BITMAP
18
0C
00
1C
7E
66
C6
C6
CC
FC
70
ENDCHAR

STARTCHAR Oacute
ENCODING 211
SWIDTH 840 0
DWIDTH 8 0
BBX 7 11 1 0
BITMAP
06
0C
00
1C
7E
66
C6
C6
CC
FC
70
ENDCHAR

STARTCHAR Ocircumflex
ENCODING 212
SWIDTH 840 0
DWIDTH 8 0
BBX 7 11 1 0
BITMAP
0C
1A
00
1C
7E
66
C6
C6
CC
FC
70
ENDCHAR

STARTCHAR Otilde
ENCODING 213
SWIDTH 840 0
DWIDTH 8 0
BBX 7 11 1 0
BITMAP
1A
24
00
1C
7E
66
C6
C6
CC
FC
70
ENDCHAR

STARTCHAR Odieresis
ENCODING 214
SWIDTH 840 0
DWIDTH 8 0
BBX 7 11 1 0
BITMAP
14
14
00
1C
7E
66
C6
C6
CC
FC
70
ENDCHAR

STARTCHAR multiply
ENCODING 215
SWIDTH 600 0
DWIDTH 6 0
BBX 6 5 0 1
BITMAP
44
28
30
50
88
ENDCHAR

STARTCHAR Oslash
ENCODING 216
SWIDTH 840 0
DWIDTH 8 0
BBX 9 8 0 0
BITMAP
0E80
3F00
3700
6B00
7300
6600
7E00
B800
ENDCHAR

STARTCHAR Ugrave
ENCODING 217
SWIDTH 640 0
DWIDTH 7 0
BBX 6 11 1 0
BITMAP
30
18
00
6C
6C
6C
6C
D8
D8
F8
70
ENDCHAR

STARTCHAR Uacute
ENCODING 218
SWIDTH 640 0
DWIDTH 7 0
BBX 6 11 1 0
BITMAP
0C
18
00
6C
6C
6C
6C
D8
D8
F8
70
ENDCHAR

STARTCHAR Ucircumflex
ENCODING 219
SWIDTH 640 0
DWIDTH 7 0
BBX 6 11 1 0
BITMAP
18
34
00
6C
6C
6C
6C
D8
D8
F8
70
ENDCHAR

STARTCHAR Udieresis
ENCODING 220
SWIDTH 640 0
DWIDTH 7 0
BBX 6 11 1 0
BITMAP
28
28
00
6C
6C
6C
6C
D8
D8
F8
70
ENDCHAR

STARTCHAR Yacute
ENCODING 221
SWIDTH 620 0
DWIDTH 6 0
BBX 6 11 1 0
BITMAP
18
30
00
CC
CC
D8
58
70
60
60
60
ENDCHAR

STARTCHAR Thorn
ENCODING 222
SWIDTH 560 0
DWIDTH 7 0
BBX 6 8 1 0
BITMAP
60
78
7C
4C
CC
F8
F0
C0
ENDCHAR

STARTCHAR germandbls
ENCODING 223
SWIDTH 600 0
DWIDTH 6 0
BBX 6 8 0 0
BITMAP
38
6C
6C
78
CC
CC
CC
D8
ENDCHAR

STARTCHAR agrave
ENCODING 224
SWIDTH 660 0
DWIDTH 7 0
BBX 7 9 0 0
BITMAP
18
0C
00
3A
6E
C6
CC
DC
6C
ENDCHAR

STARTCHAR aacute
ENCODING 225
SWIDTH 660 0
DWIDTH 7 0
BBX 7 9 0 0
BITMAP
0C
18
00
3A
6E
C6
CC
DC
6C
ENDCHAR

STARTCHAR acircumflex
ENCODING 226
SWIDTH 660 0
DWIDTH 7 0
BBX 7 9 0 0
BITMAP
18
34
00
3A
6E
C6
CC
DC
6C
ENDCHAR

STARTCHAR atilde
ENCODING 227
SWIDTH 660 0
DWIDTH 7 0
BBX 7 9 0 0
BITMAP
1A
24
00
3A
6E
C6
CC
DC
6C
ENDCHAR

STARTCHAR adieresis
ENCODING 228
SWIDTH 660 0
DWIDTH 7 0
BBX 7 9 0 0
BITMAP
14
14
00
3A
6E
C6
CC
DC
6C
ENDCHAR

STARTCHAR aring
ENCODING 229
SWIDTH 660 0
DWIDTH 7 0
BBX 7 9 0 0
BITMAP
18
24
18
3A
6E
C6
CC
DC
6C
ENDCHAR

STARTCHAR ae
ENCODING 230
SWIDTH 1080 0
DWIDTH 11 0
BBX 11 6 0 0
BITMAP
35C0
6F60
C7E0
CE00
DE40
6B80
ENDCHAR

STARTCHAR ccedilla
ENCODING 231
SWIDTH 640 0
DWIDTH 6 0
BBX 6 8 0 -2
BITMAP
38
6C
C0
C0
C8
70
20
C0
ENDCHAR

STARTCHAR egrave
ENCODING 232
SWIDTH 640 0
DWIDTH 6 0
BBX 6 9 0 0
BITMAP
30
18
00
38
6C
FC
C0
C8
70
ENDCHAR

STARTCHAR eacute
ENCODING 233
SWIDTH 640 0
DWIDTH 6 0
BBX 6 9 0 0
BITMAP
0C
18
00
38
6C
FC
C0
C8
70
ENDCHAR

STARTCHAR ecircumflex
ENCODING 234
SWIDTH 640 0
DWIDTH 6 0
BBX 6 9 0 0
BITMAP
18
34
00
38
6C
FC
C0
C8
70
ENDCHAR

STARTCHAR edieresis
ENCODING 235
SWIDTH 640 0
DWIDTH 6 0
BBX 6 9 0 0
BITMAP
28
28
00
38
6C
FC
C0
C8
70
ENDCHAR

STARTCHAR igrave
ENCODING 236
SWIDTH 240 0
DWIDTH 3 0
BBX 4 9 0 0
BITMAP
60
30
00
60
60
60
C0
C0
C0
ENDCHAR

STARTCHAR iacute
ENCODING 237
SWIDTH 240 0
DWIDTH 3 0
BBX 4 9 0 0
BITMAP
30
60
00
60
60
60
C0
C0
C0
ENDCHAR

STARTCHAR icircumflex
ENCODING 238
SWIDTH 240 0
DWIDTH 3 0
BBX 4 9 0 0
BITMAP
60
D0
00
60
60
60
C0
C0
C0
ENDCHAR

STARTCHAR idieresis
ENCODING 239
SWIDTH 240 0
DWIDTH 3 0
BBX 4 9 0 0
BITMAP
50
50
00
60
60
60
C0
C0
C0
ENDCHAR

STARTCHAR eth
ENCODING 240
SWIDTH 640 0
DWIDTH 7 0
BBX 7 9 0 0
BITMAP
6C
38
4C
3E
66
C6
C6
CC
78
ENDCHAR

STARTCHAR ntilde
ENCODING 241
SWIDTH 600 0
DWIDTH 6 0
BBX 6 9 0 0
BITMAP
34
58
00
6C
7C
6C
C8
D8
D8
ENDCHAR

STARTCHAR ograve
ENCODING 242
SWIDTH 640 0
DWIDTH 7 0
BBX 7 9 0 0
BITMAP
18
0C
00
3C
66
C6
C6
CC
78
ENDCHAR

STARTCHAR oacute
ENCODING 243
SWIDTH 640 0
DWIDTH 7 0
BBX 7 9 0 0
BITMAP
06
0C
00
3C
66
C6
C6
CC
78
ENDCHAR

STARTCHAR ocircumflex
ENCODING 244
SWIDTH 640 0
DWIDTH 7 0
BBX 7 9 0 0
BITMAP
0C
1A
00
3C
66
C6
C6
CC
78
ENDCHAR

STARTCHAR otilde
ENCODING 245
SWIDTH 640 0
DWIDTH 7 0
BBX 7 9 0 0
BITMAP
1A
24
00
3C
66
C6
C6
CC
78
ENDCHAR

STARTCHAR odieresis
ENCODING 246
SWIDTH 640 0
DWIDTH 7 0
BBX 7 9 0 0
BITMAP
14
14
00
3C
66
C6
C6
CC
78
ENDCHAR

STARTCHAR divide
ENCODING 247
SWIDTH 600 0
DWIDTH 6 0
BBX 5 5 0 1
BITMAP
30
00
F8
00
60
ENDCHAR

STARTCHAR oslash
ENCODING 248
SWIDTH 660 0
DWIDTH 7 0
BBX 7 8 0 -1
BITMAP
02
3C
66
C6
C6
CC
78
80
ENDCHAR

STARTCHAR ugrave
ENCODING 249
SWIDTH 600 0
DWIDTH 6 0
BBX 6 9 0 0
BITMAP
30
18
00
6C
6C
4C
D8
F8
68
ENDCHAR

STARTCHAR uacute
ENCODING 250
SWIDTH 600 0
DWIDTH 6 0
BBX 6 9 0 0
BITMAP
0C
18
00
6C
6C
4C
D8
F8
68
ENDCHAR

STARTCHAR ucircumflex
ENCODING 251
SWIDTH 600 0
DWIDTH 6 0
BBX 6 9 0 0
BITMAP
18
34
00
6C
6C
4C
D8
F8
68
ENDCHAR

STARTCHAR udieresis
ENCODING 252
SWIDTH 600 0
DWIDTH 6 0
BBX 6 9 0 0
BITMAP
28
28
00
6C
6C
4C
D8
F8
68
ENDCHAR

STARTCHAR yacute
ENCODING 253
SWIDTH 580 0
DWIDTH 6 0
BBX 5 11 1 -2
BITMAP
18
30
00
D8
D8
D0
70
60
60
C0
C0
ENDCHAR

STARTCHAR thorn
ENCODING 254
SWIDTH 660 0
DWIDTH 7 0
BBX 8 10 -1 -2
BITMAP
18
18
36
3B
33
63
66
7C
C0
C0
ENDCHAR

STARTCHAR ydieresis
ENCODING 255
SWIDTH 580 0
DWIDTH 6 0
BBX 5 11 1 -2
BITMAP
50
50
00
D8
D8
D0
70
60
60
C0
C0
ENDCHAR
ENDFONT
